# xmcd CD database file
#
# Track frame offsets:
#	150
#	12972
#	27552
#	41985
#	56075
#	70107
#	81835
#	97812
#	111417
#	126612
#	141737
#	154185
#
# Disc length: 2276 seconds
#
# Revision: 0
# Processed by: cddbd v1.5.1PL0 Copyright (c) Steve Scherf et al.
# Submitted via: CDex 1.51
#
DISCID=b308e20c
DTITLE=Chester Smith - California Blend
DYEAR=1900
DGENRE=Country
TTITLE0=Wreck On The Highway
TTITLE1=Old Fashioned Love
TTITLE2=Grace For The Shepherd
TTITLE3=The Titanic
TTITLE4=Crying Holy
TTITLE5='till The End Of The World
TTITLE6=When The Whole World Stands Together Holding Hands
TTITLE7=After We Go To Guns
TTITLE8=Go Look Now
TTITLE9=Wait A Little Longer Please Jesus
TTITLE10=Why A Dove?  (Wings Of A Dove)
TTITLE11=Great Judgement Morning
EXTD=
EXTT0=
EXTT1=
EXTT2=
EXTT3=
EXTT4=
EXTT5=
EXTT6=
EXTT7=
EXTT8=
EXTT9=
EXTT10=
EXTT11=
PLAYORDER=
